# xmcd
#
# Track frame offsets:
#	150
#	6067
#	25867
#	50596
#	66554
#	77126
#	92185
#	102105
#	121872
#	144280
#	157750
#	165487
#	170103
#	191925
#	201138
#	220770
#	237868
#
# Disc length: 3261 seconds
#
# Revision: 0
# Processed by: cddbd v1.5PL3 Copyright (c) Steve Scherf et al.
# Submitted via: dBpowerAMP V4.0
#
DISCID=e30cbb11
DTITLE=De La Soul  - Art Official Intelligence: Mosaic Thump 
DYEAR=2000
DGENRE=Acapella
TTITLE0=01 Spitkicker. Com/Say R
TTITLE1=02 U Can Do (Life)
TTITLE2=03 My Writes
TTITLE3=04 Oooh
TTITLE4=05 Thru Ya City
TTITLE5=06 I.C. Y'all
TTITLE6=07 View
TTITLE7=08 Set the Mood
TTITLE8=09 All Good
TTITLE9=10 Declaration
TTITLE10=11Squat!
TTITLE11=12 Words from the Chief Rocker
TTITLE12=13 With Me
TTITLE13=14 Copa (Cabanga)
TTITLE14=15 Foolin'
TTITLE15=16 Art of Getting Jumped
TTITLE16=17 U Don't Wanna B.D.S.
EXTD=
EXTT0=
EXTT1=
EXTT2=
EXTT3=
EXTT4=
EXTT5=
EXTT6=
EXTT7=
EXTT8=
EXTT9=
EXTT10=
EXTT11=
EXTT12=
EXTT13=
EXTT14=
EXTT15=
EXTT16=
PLAYORDER=
